<svg width="77" height="65" viewBox="0 0 77 65" fill="none" xmlns="http://www.w3.org/2000/svg">
<path d="M70.6875 0H5.4375C3.99539 0 2.61234 0.684819 1.59261 1.90381C0.572878 3.12279 0 4.77609 0 6.5V58.5C0 60.2239 0.572878 61.8772 1.59261 63.0962C2.61234 64.3152 3.99539 65 5.4375 65H70.6875C72.1296 65 73.5127 64.3152 74.5324 63.0962C75.5521 61.8772 76.125 60.2239 76.125 58.5V6.5C76.125 4.77609 75.5521 3.12279 74.5324 1.90381C73.5127 0.684819 72.1296 0 70.6875 0ZM64.7062 6.5L38.0625 28.535L11.4187 6.5H64.7062ZM5.4375 58.5V9.4575L36.5128 35.165C36.9679 35.5424 37.5086 35.7447 38.0625 35.7447C38.6164 35.7447 39.1571 35.5424 39.6122 35.165L70.6875 9.4575V58.5H5.4375Z" fill="black"/>
</svg>
