<svg width="40" height="35" viewBox="0 0 40 35" fill="none" xmlns="http://www.w3.org/2000/svg">
<path fill-rule="evenodd" clip-rule="evenodd" d="M20 0C8.95 0 0 7.83125 0 17.5C0 25.2437 5.725 31.7844 13.675 34.1031C14.675 34.2562 15.05 33.7313 15.05 33.2719C15.05 32.8563 15.025 31.4781 15.025 30.0125C10 30.8219 8.7 28.9406 8.3 27.9562C8.075 27.4531 7.1 25.9 6.25 25.4844C5.55 25.1562 4.55 24.3469 6.225 24.325C7.8 24.3031 8.925 25.5937 9.3 26.1187C11.1 28.7656 13.975 28.0219 15.125 27.5625C15.3 26.425 15.825 25.6594 16.4 25.2219C11.95 24.7844 7.3 23.275 7.3 16.5812C7.3 14.6781 8.075 13.1031 9.35 11.8781C9.15 11.4406 8.45 9.64687 9.55 7.24062C9.55 7.24062 11.225 6.78125 15.05 9.03438C16.65 8.64062 18.35 8.44375 20.05 8.44375C21.75 8.44375 23.45 8.64062 25.05 9.03438C28.875 6.75938 30.55 7.24062 30.55 7.24062C31.65 9.64687 30.95 11.4406 30.75 11.8781C32.025 13.1031 32.8 14.6562 32.8 16.5812C32.8 23.2969 28.125 24.7844 23.675 25.2219C24.4 25.7687 25.025 26.8187 25.025 28.4594C25.025 30.8 25 32.6812 25 33.2719C25 33.7313 25.375 34.2781 26.375 34.1031C30.3453 32.9302 33.7953 30.6975 36.2394 27.7191C38.6836 24.7407 39.9988 21.1667 40 17.5C40 7.83125 31.05 0 20 0Z" fill="black"/>
</svg>
