<svg width="39" height="40" viewBox="0 0 39 40" fill="none" xmlns="http://www.w3.org/2000/svg">
<g clip-path="url(#clip0_41_13)">
<path d="M33.2296 34.0824H27.451V24.8007C27.451 22.5874 27.4125 19.7382 24.4456 19.7382C21.4359 19.7382 20.9754 22.1498 20.9754 24.6396V34.0818H15.197V14.9949H20.7443V17.6034H20.8219C21.3771 16.6298 22.1793 15.8289 23.1432 15.2859C24.107 14.7429 25.1964 14.4783 26.2954 14.5201C32.1522 14.5201 33.232 18.4713 33.232 23.6117L33.2296 34.0824ZM8.67665 12.386C6.8246 12.3863 5.32295 10.8467 5.32265 8.94713C5.32234 7.0476 6.82338 5.50744 8.67543 5.50713C10.5275 5.50666 12.0291 7.04635 12.0294 8.94588C12.0296 9.85807 11.6764 10.733 11.0477 11.3781C10.4189 12.0233 9.56604 12.3858 8.67665 12.386ZM11.566 34.0826H5.78135V14.9949H11.5658V34.0824L11.566 34.0826ZM36.1104 0.00291123H2.87768C1.30702 -0.0152138 0.0189512 1.27525 -0.000244141 2.88619V37.1132C0.0183418 38.7249 1.30626 40.0167 2.87753 39.9998H36.1104C37.685 40.0198 38.978 38.7281 38.9998 37.1132V2.88354C38.9774 1.26947 37.6843 -0.0208388 36.1104 0.000254983" fill="#0A66C2"/>
</g>
<defs>
<clipPath id="clip0_41_13">
<rect width="39" height="40" fill="white"/>
</clipPath>
</defs>
</svg>
