<svg width="105" height="108" viewBox="0 0 105 108" fill="none" xmlns="http://www.w3.org/2000/svg">
<path d="M82.0312 43.875C82.0312 35.819 78.9199 28.093 73.3817 22.3966C67.8436 16.7002 60.3322 13.5 52.5 13.5C44.6678 13.5 37.1564 16.7002 31.6183 22.3966C26.0801 28.093 22.9688 35.819 22.9688 43.875C22.9688 56.3355 32.6616 72.576 52.5 92.0295C72.3384 72.576 82.0312 56.3355 82.0312 43.875ZM52.5 101.25C28.4353 78.7523 16.4062 59.6227 16.4062 43.875C16.4062 34.0288 20.209 24.5859 26.9779 17.6237C33.7468 10.6614 42.9273 6.75 52.5 6.75C62.0727 6.75 71.2532 10.6614 78.0221 17.6237C84.791 24.5859 88.5938 34.0288 88.5938 43.875C88.5938 59.6227 76.5647 78.7523 52.5 101.25Z" fill="black"/>
<path d="M52.5 54C55.1107 54 57.6145 52.9333 59.4606 51.0345C61.3066 49.1357 62.3438 46.5603 62.3438 43.875C62.3438 41.1897 61.3066 38.6143 59.4606 36.7155C57.6145 34.8167 55.1107 33.75 52.5 33.75C49.8893 33.75 47.3855 34.8167 45.5394 36.7155C43.6934 38.6143 42.6562 41.1897 42.6562 43.875C42.6562 46.5603 43.6934 49.1357 45.5394 51.0345C47.3855 52.9333 49.8893 54 52.5 54ZM52.5 60.75C48.1488 60.75 43.9758 58.9721 40.899 55.8074C37.8223 52.6427 36.0938 48.3505 36.0938 43.875C36.0938 39.3995 37.8223 35.1072 40.899 31.9426C43.9758 28.7779 48.1488 27 52.5 27C56.8512 27 61.0242 28.7779 64.101 31.9426C67.1777 35.1072 68.9062 39.3995 68.9062 43.875C68.9062 48.3505 67.1777 52.6427 64.101 55.8074C61.0242 58.9721 56.8512 60.75 52.5 60.75Z" fill="black"/>
</svg>
