<svg width="118" height="114" viewBox="0 0 118 114" fill="none" xmlns="http://www.w3.org/2000/svg">
<path d="M107.21 47.6971H103.25V47.5H58.9999V66.5H86.7865C82.7327 77.5604 71.8398 85.5 58.9999 85.5C42.7085 85.5 29.4999 72.7391 29.4999 57C29.4999 41.2609 42.7085 28.5 58.9999 28.5C66.52 28.5 73.3615 31.2407 78.5707 35.7176L92.4775 22.2822C83.6963 14.3759 71.9504 9.5 58.9999 9.5C31.8476 9.5 9.83325 30.7681 9.83325 57C9.83325 83.2319 31.8476 104.5 58.9999 104.5C86.1522 104.5 108.167 83.2319 108.167 57C108.167 53.8151 107.827 50.7062 107.21 47.6971Z" fill="#FFC107"/>
<path d="M15.5022 34.8911L31.6559 46.3363C36.0268 35.8815 46.6124 28.5 58.9999 28.5C66.52 28.5 73.3615 31.2407 78.5707 35.7176L92.4775 22.2822C83.6964 14.3759 71.9504 9.5 58.9999 9.5C40.115 9.5 23.7376 19.8004 15.5022 34.8911Z" fill="#FF3D00"/>
<path d="M59.0001 104.5C71.6999 104.5 83.2393 99.8048 91.9639 92.1692L76.7468 79.7289C71.6447 83.4776 65.4101 85.5051 59.0001 85.5002C46.2119 85.5002 35.3534 77.6223 31.2627 66.6284L15.2295 78.5628C23.3666 93.9457 39.8915 104.5 59.0001 104.5Z" fill="#4CAF50"/>
<path d="M107.21 47.6971H103.25V47.5H59V66.5H86.7865C84.8474 71.764 81.3545 76.3638 76.7393 79.7311L76.7467 79.7264L91.9638 92.1666C90.887 93.1119 108.167 80.75 108.167 57C108.167 53.8151 107.827 50.7062 107.21 47.6971Z" fill="#1976D2"/>
</svg>
