<svg width="76" height="81" viewBox="0 0 76 81" fill="none" xmlns="http://www.w3.org/2000/svg">
<path d="M55.404 48.5418C54.4516 48.0279 49.8132 45.6157 48.9464 45.2714C48.0795 44.9423 47.4501 44.7702 46.8184 45.7852C46.2009 46.775 44.3816 49.0404 43.8259 49.7011C43.2701 50.3618 42.7239 50.4124 41.7858 49.9643C40.8334 49.4505 37.791 48.395 34.1786 44.9423C31.3571 42.2668 29.4785 38.9711 28.9204 37.9561C28.3646 36.9537 28.8586 36.3867 29.3289 35.8855C29.7611 35.4248 30.2812 34.7262 30.7634 34.1187C31.2218 33.5112 31.369 33.1037 31.7039 32.4456C32.0126 31.7343 31.8535 31.1799 31.6184 30.6787C31.3832 30.1776 29.4904 25.2087 28.6995 23.2293C27.9443 21.265 27.1534 21.5156 26.5715 21.5156C26.0276 21.4625 25.3959 21.4625 24.7665 21.4625C24.1371 21.4625 23.1087 21.7131 22.2419 22.6749C21.375 23.69 18.9264 26.1149 18.9264 31.0205C18.9264 35.9387 22.3155 40.6974 22.7857 41.4087C23.2679 42.0668 29.4524 52.1918 38.9405 56.5431C41.2039 57.5581 42.9614 58.1656 44.3341 58.6668C46.5975 59.4312 48.6637 59.3249 50.2954 59.0743C52.1004 58.7579 55.8861 56.6342 56.6794 54.2624C57.4845 51.8754 57.4845 49.8985 57.2494 49.4505C57.0142 48.9898 56.3967 48.7392 55.4444 48.2912L55.404 48.5418ZM38.1971 73.4062H38.1473C32.5304 73.4062 26.9776 71.7837 22.1279 68.7513L20.9903 68.0273L9.11525 71.323L12.3073 59.0085L11.5401 57.7429C8.40385 52.4282 6.74001 46.2773 6.74025 39.9988C6.74025 21.6219 20.8549 6.63187 38.2209 6.63187C46.6331 6.63187 54.5252 10.125 60.4627 16.4531C63.3918 19.5377 65.7151 23.213 67.2973 27.2647C68.8794 31.3165 69.6886 35.6634 69.6777 40.052C69.654 58.4162 55.5512 73.4062 38.209 73.4062H38.1971ZM64.9776 11.6412C57.7529 4.20441 48.2529 0 38.1473 0C17.3043 0 0.3325 18.0098 0.320625 40.1431C0.320625 47.2103 2.052 54.1055 5.3675 60.2083L0 81L20.064 75.4237C25.6222 78.6175 31.835 80.2974 38.1496 80.314H38.1615C59.0164 80.314 75.9881 62.3042 76 40.1558C76 29.4384 72.0789 19.3514 64.9301 11.7703L64.9776 11.6412Z" fill="black"/>
</svg>
